<?xml version="1.0" encoding="UTF-8" standalone="no"?>
<!-- Created with Inkscape (http://www.inkscape.org/) -->

<svg
   width="128"
   height="128"
   viewBox="0 0 33.866667 33.866668"
   version="1.1"
   id="svg5860"
   inkscape:version="1.1 (c68e22c387, 2021-05-23)"
   sodipodi:docname="splash.svg"
   xmlns:inkscape="http://www.inkscape.org/namespaces/inkscape"
   xmlns:sodipodi="http://sodipodi.sourceforge.net/DTD/sodipodi-0.dtd"
   xmlns="http://www.w3.org/2000/svg"
   xmlns:svg="http://www.w3.org/2000/svg"
   xmlns:rdf="http://www.w3.org/1999/02/22-rdf-syntax-ns#"
   xmlns:cc="http://creativecommons.org/ns#"
   xmlns:dc="http://purl.org/dc/elements/1.1/">
  <defs
     id="defs5854" />
  <sodipodi:namedview
     id="base"
     pagecolor="#ffffff"
     bordercolor="#666666"
     borderopacity="1.0"
     inkscape:pageopacity="0.0"
     inkscape:pageshadow="2"
     inkscape:zoom="1.979899"
     inkscape:cx="-20.455589"
     inkscape:cy="119.45054"
     inkscape:document-units="mm"
     inkscape:current-layer="layer1"
     showgrid="false"
     inkscape:window-width="1920"
     inkscape:window-height="1137"
     inkscape:window-x="1912"
     inkscape:window-y="-8"
     inkscape:window-maximized="1"
     inkscape:pagecheckerboard="0"
     units="px"
     fit-margin-top="0"
     fit-margin-left="0"
     fit-margin-right="0"
     fit-margin-bottom="0"
     showborder="false"
     inkscape:showpageshadow="false" />
  <metadata
     id="metadata5857">
    <rdf:RDF>
      <cc:Work
         rdf:about="">
        <dc:format>image/svg+xml</dc:format>
        <dc:type
           rdf:resource="http://purl.org/dc/dcmitype/StillImage" />
      </cc:Work>
    </rdf:RDF>
  </metadata>
  <g
     inkscape:label="Layer 1"
     inkscape:groupmode="layer"
     id="layer1"
     transform="translate(-84.857193,-90.744044)">
    <g
       transform="matrix(0.19212503,0,0,0.19212503,76.760929,31.992066)"
       id="Layer1021"
       inkscape:label="logo">
      <g
         id="Layer1022"
         inkscape:label="logo-name">
        <path
           d="m 142.1294,365.4031 -30.1704,-0.0209 4.6093,-7.1864 V 329.911 H 68.7776 v 28.9133 l -16.8661,26.8391 v 29.3324 h 5.9712 L 99.2203,390.629 v -5.0075 l 7.2493,-11.2091 v 11.9843 z"
           style="fill:#e30016;fill-rule:evenodd"
           id="path4689"
           inkscape:connector-curvature="0" />
        <path
           d="m 192.4379,335.8401 -39.4101,23.1517 h -7.9197 v -29.1229 h 47.3298 z"
           style="fill:#e30016;fill-rule:evenodd"
           id="path4691"
           inkscape:connector-curvature="0" />
        <path
           d="m 57.9331,414.9818 -15.7925,8.9729 176.2741,0.1346 -9.8703,-9.6459 h -47.5567 v -28.9827 h 47.5567 v 29.0724 l 9.8703,9.5562 V 320.5412 l -26.2011,15.5233 v 22.7913 h -39.1222 l -11.3956,6.6849 h 12.3378 v 28.8032 h -48.0054 v -7.5821 l -7.2681,4.0827 v 24.0924 z"
           style="fill:#e30016;fill-rule:evenodd"
           id="path4693"
           inkscape:connector-curvature="0" />
      </g>
      <g
         id="Layer1023"
         inkscape:label="logo-art">
        <path
           d="m 42.1407,431.0592 h 14.7467 l 5.6925,22.0691 5.6676,-22.0691 h 14.6956 v 36.2752 h -9.155 v -27.6607 l -7.1033,27.6607 h -8.2857 l -7.0776,-27.6607 v 27.6607 h -9.1808 z"
           style="fill:#e30016;fill-rule:evenodd"
           id="path4696"
           inkscape:connector-curvature="0" />
        <path
           d="m 129.2607,431.0592 h 14.7467 l 5.6925,22.0691 5.6676,-22.0691 h 14.6956 v 36.2752 h -9.155 v -27.6607 l -7.1033,27.6607 h -8.2857 l -7.0776,-27.6607 v 27.6607 h -9.1808 z m 47.8383,0 h 14.7467 l 5.6928,22.0691 5.6673,-22.0691 h 14.696 v 36.2752 h -9.1554 v -27.6607 l -7.1033,27.6607 h -8.2854 l -7.0778,-27.6607 v 27.6607 h -9.1809 z"
           style="fill:#e30016;fill-rule:evenodd"
           id="path4698"
           inkscape:connector-curvature="0" />
        <g
           id="Layer1024">
          <path
             d="m 98.8152,457.9744 7.3182,-7.3182 7.3179,7.3182 -7.3179,7.3182 z"
             style="fill:#e30016;fill-rule:evenodd"
             id="path4700"
             inkscape:connector-curvature="0" />
          <path
             d="m 86.4312,467.3344 h 11.376 l 1.872,-6.264 -3.168,-3.24 5.976,-5.904 3.168,-10.584 3.168,10.296 6.336,6.264 -3.168,3.24 1.8,6.192 h 11.808 l -13.752,-36.36 h -12.168 z"
             style="fill:#e30016;fill-rule:evenodd"
             id="path4702"
             inkscape:connector-curvature="0" />
        </g>
      </g>
    </g>
  </g>
</svg>
